<svg width="308" height="328" viewBox="0 0 308 328" fill="none" xmlns="http://www.w3.org/2000/svg">
<circle cx="50" cy="80" r="50" fill="#E55B88"/>
<circle cx="180" cy="65" r="65" fill="#E65B88"/>
<path fill-rule="evenodd" clip-rule="evenodd" d="M12 148C5.37258 148 0 153.373 0 160V316C0 322.627 5.37258 328 12 328H233C239.627 328 245 322.627 245 316V280.36L290.099 305.832C298.098 310.35 308 304.57 308 295.383V180.617C308 171.43 298.098 165.65 290.099 170.168L245 195.64V160C245 153.373 239.627 148 233 148H12Z" fill="#E55B88"/>
<path fill-rule="evenodd" clip-rule="evenodd" d="M51.5598 224.175C61.4547 258.683 97.4504 278.636 131.958 268.741C166.466 258.846 186.419 222.85 176.524 188.343L51.5598 224.175Z" fill="#F8F1F1"/>
</svg>
